<?xml version="1.0" encoding="UTF-8" standalone="no"?>
<!-- Created with Inkscape (http://www.inkscape.org/) -->

<svg
   version="1.1"
   id="svg1"
   width="1075.927"
   height="1079.4344"
   viewBox="0 0 1075.927 1079.4344"
   sodipodi:docname="logo_gisac.svg"
   inkscape:version="1.3.2 (091e20e, 2023-11-25, custom)"
   xmlns:inkscape="http://www.inkscape.org/namespaces/inkscape"
   xmlns:sodipodi="http://sodipodi.sourceforge.net/DTD/sodipodi-0.dtd"
   xmlns="http://www.w3.org/2000/svg"
   xmlns:svg="http://www.w3.org/2000/svg">
  <defs
     id="defs1">
    <clipPath
       clipPathUnits="userSpaceOnUse"
       id="clipPath9">
      <ellipse
         style="fill:#ffffff;fill-opacity:0;stroke:#fbfbff;stroke-width:15.8974;stroke-dasharray:none;stroke-dashoffset:0;stroke-opacity:1"
         id="ellipse9"
         cx="533.65948"
         cy="531.03656"
         rx="527.89539"
         ry="526.45813" />
    </clipPath>
    <clipPath
       clipPathUnits="userSpaceOnUse"
       id="clipPath10">
      <ellipse
         style="fill:#ffffff;fill-opacity:0;stroke:#fbfbff;stroke-width:15.8974;stroke-dasharray:none;stroke-dashoffset:0;stroke-opacity:1"
         id="ellipse10"
         cx="533.65948"
         cy="531.03656"
         rx="527.89539"
         ry="526.45813" />
    </clipPath>
  </defs>
  <sodipodi:namedview
     id="namedview1"
     pagecolor="#ffffff"
     bordercolor="#000000"
     borderopacity="0.25"
     inkscape:showpageshadow="2"
     inkscape:pageopacity="0.0"
     inkscape:pagecheckerboard="0"
     inkscape:deskcolor="#d1d1d1"
     showgrid="false"
     inkscape:zoom="0.69580902"
     inkscape:cx="1110.2184"
     inkscape:cy="522.41346"
     inkscape:window-width="2400"
     inkscape:window-height="1261"
     inkscape:window-x="2391"
     inkscape:window-y="-9"
     inkscape:window-maximized="1"
     inkscape:current-layer="g1" />
  <g
     inkscape:groupmode="layer"
     inkscape:label="Image"
     id="g1"
     transform="translate(1.9846006,17.230509)">
    <g
       id="g11"
       transform="translate(-21.557637,1.4371757)">
      <path
         style="fill:#ffffff;fill-opacity:1;stroke:#f8f8ff;stroke-width:1.00157;stroke-dasharray:none;stroke-opacity:1"
         d="m 3.0938017,812.73915 c 0.025,-138.58409 0.16525,-248.51866 0.31448,-246.48 C 23.371722,838.97371 241.77491,1050.8238 515.04871,1062.548 c 3.256,0.1397 -110.612,0.2759 -253.04,0.3026 l -258.9599983,0.049 z M 559.84871,1062.5546 c 277.93798,-11.544 500.69139,-232.97715 512.61379,-509.57545 0.1366,-3.168 0.2703,110.268 0.2973,252.08 l 0.049,257.84005 -259.44001,-0.049 c -142.69198,-0.027 -256.77598,-0.16 -253.51998,-0.2952 z M 429.64735,918.21842 c -6.16727,-1.02436 -9.64167,-5.97337 -9.6315,-13.71927 0.0141,-10.70151 9.75595,-16.55774 19.82703,-11.91881 l 1.21317,0.55881 -1.09674,2.59737 -1.09674,2.59737 -2.78693,-0.96374 c -5.56408,-1.92409 -9.00439,0.32294 -9.55714,6.24222 -0.69661,7.45983 3.31489,10.64093 10.69021,8.47729 l 2.64,-0.77448 v 2.79724 2.79723 l -1.35502,0.54217 c -1.07091,0.4285 -6.22535,1.23088 -6.96498,1.08423 -0.088,-0.0174 -0.93461,-0.16038 -1.88136,-0.31763 z m 20.27461,0.0397 c -6.6385,-0.9553 -10.29352,-9.6147 -6.88133,-16.30313 3.47916,-6.81971 14.26951,-6.43784 17.58151,0.62222 3.86129,8.23092 -2.06982,16.92284 -10.70018,15.68091 z m 4.03435,-5.94394 c 1.46239,-1.32345 1.735,-6.9074 0.42301,-8.66466 -1.48136,-1.98412 -4.56247,-1.62902 -5.59498,0.64481 -2.3256,5.12155 1.6178,11.23632 5.17197,8.01985 z m 38.05288,5.91292 c -3.88787,-0.76088 -4.78093,-2.73746 -4.79285,-10.60794 l -0.008,-5.04 h -1.28 -1.28 v -1.75387 -1.75387 l 1.50582,-0.76528 c 1.3795,-0.70108 1.5629,-0.9365 2.18608,-2.80613 l 0.68026,-2.04085 2.11828,-0.0943 2.11828,-0.0943 0.0956,2.01426 0.0956,2.01427 2.64,0.0929 2.64,0.0929 v 2.54706 2.54706 h -2.72 -2.72 l 0.005,4.4 c 0.007,6.17102 0.46671,6.80503 4.1455,5.71255 l 1.63524,-0.48562 -0.0927,2.59525 -0.0927,2.59525 -1.12,0.38296 c -1.67577,0.573 -4.14006,0.76449 -5.75952,0.44755 z m 48.53933,-0.003 c -11.96236,-1.71709 -10.70308,-21.08498 1.37093,-21.08498 5.82285,0 8.74601,3.07768 9.194,9.68 l 0.18999,2.8 h -6.28737 c -6.87098,0 -6.78908,-0.0268 -5.64602,1.84797 1.16911,1.91751 4.47627,2.26966 8.18945,0.87203 1.16897,-0.44 2.18026,-0.8 2.24731,-0.8 0.067,0 0.1219,1.20836 0.1219,2.68525 v 2.68525 l -1.27505,0.51018 c -1.20001,0.48014 -2.50524,0.7267 -5.12495,0.96811 -0.616,0.0568 -1.95708,-0.017 -2.98019,-0.16381 z m 4.26019,-13.86714 c 0,-1.94646 -3.39065,-2.93217 -4.97293,-1.4457 -1.58664,1.49057 -1.12887,1.90786 2.09293,1.90786 2.29724,0 2.88,-0.0935 2.88,-0.46216 z m 36.52403,13.87754 c -3.77581,-0.7419 -4.63459,-2.53084 -4.78865,-9.97538 l -0.11755,-5.68 h -1.24891 -1.24892 v -1.70915 -1.70914 l 1.6,-0.87083 c 0.88,-0.47896 1.6,-1.00044 1.6,-1.15885 0,-0.15842 0.29834,-1.08543 0.66299,-2.06003 l 0.66299,-1.772 h 2.21701 2.21701 v 2.08 2.08 h 2.56 2.56 v 2.56 2.56 h -2.56 -2.56 v 4.896 c 0,6.08888 0.19484,6.34519 3.96164,5.21155 l 1.50335,-0.45244 -0.0925,2.61195 -0.0925,2.61194 -1.12,0.35698 c -1.70711,0.5441 -4.16387,0.72436 -5.71597,0.4194 z m 12.78335,-0.008 c -3.27056,-0.63038 -4.95357,-2.78454 -4.97496,-6.36768 -0.0276,-4.6231 3.23207,-7.04 9.49481,-7.04 2.08724,0 2.17277,-0.0306 2.17277,-0.77715 0,-1.93188 -2.81551,-2.38626 -6.18969,-0.99892 l -1.86969,0.76875 -1.04957,-2.29634 -1.04957,-2.29634 0.67926,-0.39448 c 3.62814,-2.10703 10.13897,-2.26174 13.0369,-0.30979 2.44377,1.64603 2.66954,2.59108 2.78661,11.66427 l 0.10426,8.08 h -2.39883 -2.39883 l -0.21085,-0.96 c -0.23318,-1.06167 -0.52753,-1.19389 -1.10603,-0.49685 -0.92999,1.12058 -4.66984,1.87877 -7.02659,1.42453 z m 5.45384,-5.60076 c 0.94837,-0.47716 1.23878,-1.03819 1.23878,-2.3931 0,-1.72713 -4.84684,-1.01362 -5.29695,0.77978 -0.56246,2.24101 1.32181,2.9901 4.05817,1.61332 z m 28.59878,5.63103 c -11.96027,-1.75692 -11.08048,-21.10583 0.96,-21.11304 5.99703,-0.004 9.03468,3.05906 9.36876,9.44587 l 0.15844,3.02922 h -6.2836 c -3.45598,0 -6.2836,0.0766 -6.2836,0.17027 0,3.15711 4.71777,4.31156 9.52,2.32957 l 2,-0.82545 v 2.80267 2.80268 l -2.16,0.65916 c -2.55925,0.78101 -5.07658,1.02273 -7.28,0.69905 z m 3.98982,-13.99795 c -0.0406,-2.23388 -3.8832,-2.92258 -5.26883,-0.94431 -0.93792,1.33907 -0.67441,1.50431 2.39901,1.50431 2.5334,0 2.87877,-0.0674 2.86982,-0.56 z m 12.40582,14.00602 c -1.0144,-0.13332 -2.4904,-0.48913 -3.28,-0.79068 l -1.43564,-0.54828 v -2.85353 c 0,-1.56944 0.0777,-2.85353 0.17275,-2.85353 0.095,0 0.75827,0.29871 1.47392,0.66381 2.82324,1.4403 7.08097,1.82731 7.99444,0.72665 0.57944,-0.69818 -0.17353,-1.27844 -4.28166,-3.29958 -11.45064,-5.63356 -2.60201,-16.13407 9.26204,-10.99109 l 1.33845,0.58021 -0.95609,2.22945 c -0.52585,1.2262 -1.01278,2.28614 -1.08206,2.35542 -0.0693,0.0693 -1.02599,-0.17797 -2.12602,-0.54945 -2.46163,-0.83131 -5.0073,-0.90621 -5.29525,-0.15581 -0.23326,0.60786 0.0321,0.78256 3.6343,2.39238 4.39532,1.96428 5.84312,3.53857 5.85637,6.36801 0.0231,4.944 -4.46487,7.62116 -11.27555,6.72602 z M 464.48871,907.85915 v -10.4 h 2.56 c 2.34666,0 2.56,0.0533 2.56,0.64 0,0.79358 -0.0887,0.80065 1.96822,-0.15688 3.83809,-1.78672 8.64107,-0.70623 10.43642,2.34781 l 0.87536,1.48907 0.0997,8.24 0.0997,8.24 h -3.05967 -3.05966 l -0.005,-6.8 c -0.006,-8.57596 -0.52133,-9.77236 -3.8263,-8.88242 -2.18435,0.58818 -2.38443,1.3079 -2.51383,9.04242 l -0.11108,6.64 h -3.01204 -3.01203 z m 36.48,0 v -10.4 h 3.04 3.04 v 10.4 10.4 h -3.04 -3.04 z m 10.13333,10.18666 c -0.11733,-0.11733 -0.21333,-4.79733 -0.21333,-10.4 v -10.18666 h 2.53843 c 2.28006,0 2.55968,0.0669 2.74716,0.65761 0.11479,0.36169 0.3045,0.60609 0.42156,0.54313 9.05786,-4.87222 13.17285,-0.99035 13.17285,12.42659 v 7.19584 l -3.12,-0.0916 -3.12,-0.0916 -0.16,-7.26931 c -0.18381,-8.35094 -0.21094,-8.43416 -2.7319,-8.38 -2.9302,0.0629 -3.34389,1.25582 -3.34632,9.64931 l -0.002,6.16 h -2.98667 c -1.64267,0 -3.08267,-0.096 -3.2,-0.21334 z m 42.66667,-10.18666 v -10.4 h 2.56 c 2.34666,0 2.56,0.0533 2.56,0.64 0,0.79358 -0.0887,0.80065 1.96822,-0.15688 4.04875,-1.88479 8.89712,-0.6515 10.59178,2.69426 l 0.88,1.73738 v 7.94262 7.94262 h -3.04 -3.04 v -6.67225 c 0,-8.82186 -0.47514,-9.91382 -3.91111,-8.98861 -2.03645,0.54836 -2.2865,1.49417 -2.42718,9.18086 l -0.1186,6.48 h -3.01155 -3.01156 z m 56.96,-3.84 v -14.24 h 3.2 3.2 v 14.24 14.24 h -3.2 -3.2 z M 502.19463,896.0097 c -1.89236,-1.02769 -1.8516,-4.44509 0.0648,-5.43612 2.47204,-1.27834 5.10924,0.12849 5.10924,2.72557 0,2.60086 -2.7364,4.03438 -5.17408,2.71055 z M 229.6087,861.93915 v -16.32 h 2.4 c 2.16235,0 2.4,0.0615 2.4,0.62111 0,0.72358 0.5034,1.1388 0.7996,0.65953 2.0015,-3.23849 8.50139,-1.66753 10.64517,2.57282 4.99405,9.87813 -1.71174,23.42433 -9.36147,18.91088 l -1.1233,-0.66276 v 5.26921 5.26921 h -2.88 -2.88 z m 10.29968,0.66174 c 1.42755,-1.12291 2.09795,-6.26586 1.17501,-9.01399 -1.04418,-3.10913 -4.39088,-3.16931 -5.40478,-0.0972 -1.72485,5.22636 1.18902,11.50302 4.22977,9.11117 z m 201.13596,15.34888 c -1.01439,-0.13586 -2.49039,-0.49373 -3.28,-0.79528 l -1.43563,-0.54828 v -3.15583 -3.15583 l 1.74087,0.797 c 5.06401,2.31838 8.66695,1.53518 9.06202,-1.96989 l 0.16877,-1.49733 -0.76583,0.4995 c -8.20946,5.35451 -15.51753,-9.9112 -9.39482,-19.62468 2.19887,-3.48843 8.4842,-4.42313 10.27361,-1.5278 0.16958,0.27438 0.30725,0.14929 0.43521,-0.39543 0.1769,-0.75309 0.32238,-0.8019 2.65366,-0.89024 l 2.46651,-0.0935 v 12.43538 c 0,18.43913 -1.70672,21.29056 -11.92437,19.92217 z m 4.67402,-15.08591 c 2.17659,-0.99172 2.46397,-8.87786 0.39437,-10.82214 -2.29424,-2.15533 -4.70108,-0.22242 -4.92015,3.95131 -0.31428,5.98786 1.25035,8.36321 4.52578,6.87083 z m 380.92603,15.09099 c -1.0144,-0.13865 -2.4904,-0.49881 -3.28,-0.80036 l -1.4357,-0.54828 v -3.15583 -3.15583 l 1.68,0.76366 c 5.3187,2.41763 9.2,1.47658 9.2,-2.23055 v -1.14327 l -0.813,0.53273 c -7.3515,4.81686 -14.0905,-7.13079 -10.0752,-17.86249 1.7746,-4.7432 8.1615,-6.90379 10.8445,-3.66858 0.5215,0.62885 1.0037,0.41468 1.0037,-0.44579 0,-0.56352 0.2395,-0.62111 2.5828,-0.62111 h 2.5828 l -0.1205,12.72 c -0.1339,14.13718 -0.1758,14.44236 -2.3285,16.95729 -1.9195,2.24246 -5.6034,3.23762 -9.8409,2.65841 z m 4.719,-15.05367 c 2.3475,-0.89252 2.4672,-9.97009 0.1479,-11.21137 -2.8081,-1.50285 -4.7864,0.75563 -4.7732,5.44934 0.014,4.89915 1.6228,6.90357 4.6253,5.76203 z m -652.15469,6.07951 c -6.19488,-0.92388 -9.74736,-6.40453 -9.74971,-15.04154 -0.003,-12.26444 8.41156,-18.35305 19.40082,-14.03752 l 1.65111,0.6484 -0.90912,2.68954 c -1.20071,3.55218 -1.03408,3.41006 -2.9861,2.54678 -6.52831,-2.88712 -11.087,0.53088 -11.087,8.3128 0,5.85406 2.1303,8.8 6.36355,8.8 2.53681,0 2.59645,-0.0633 2.59645,-2.75424 v -2.36576 h -2.24 -2.24 v -3.2 -3.2 h 5.28 5.28 v 7.97391 7.97391 l -2,0.66517 c -1.80228,0.59941 -6.05519,1.33386 -7.28,1.2572 -0.264,-0.0165 -1.2,-0.13742 -2.08,-0.26865 z m 34.44404,-0.0269 c -4.55857,-0.8932 -5.46729,-3.45056 -5.47737,-15.41461 l -0.007,-7.92 h 2.88 2.88 l 0.008,6.96 c 0.0103,9.40553 0.47396,10.95715 3.14466,10.52376 2.54966,-0.41375 2.9277,-1.80128 2.9277,-10.74547 v -6.73829 h 2.88 2.88 v 11.52 11.52 h -2.4 c -2.18666,0 -2.4,-0.0569 -2.4,-0.64 0,-0.74618 -0.7113,-0.84524 -1.26641,-0.17637 -0.78914,0.95085 -3.92636,1.527 -6.04955,1.11098 z m 43.95597,0.19 c -0.176,-0.0617 -0.83931,-0.19864 -1.47401,-0.30428 -8.09798,-1.34786 -9.83292,-18.06135 -2.33121,-22.45764 7.42511,-4.3514 14.90813,2.81361 13.63734,13.05779 -0.76688,6.18206 -5.77624,11.1262 -9.83212,9.70413 z m 2.71058,-6.71609 c 1.90107,-1.72045 1.65807,-9.67493 -0.32803,-10.73786 -3.66505,-1.96148 -6.31758,3.16176 -4.61147,8.90684 0.73242,2.46632 3.21898,3.38806 4.9395,1.83102 z m 23.40695,6.485 c -7.59665,-1.66824 -8.21396,-20.07208 -0.77748,-23.17924 1.54199,-0.64428 4.22247,-0.54754 5.69995,0.20572 0.69042,0.352 1.26087,0.64021 1.26766,0.64047 0.007,2.7e-4 -0.0309,-2.15973 -0.0837,-4.8 l -0.096,-4.80047 h 3.05603 3.05604 v 15.85346 15.85346 l -2.48,-0.0935 c -2.29512,-0.0865 -2.48763,-0.14714 -2.58226,-0.81346 -0.11996,-0.84463 -0.45683,-0.91586 -1.03526,-0.21891 -1.05191,1.26749 -3.70245,1.86246 -6.02495,1.35243 z m 5.30196,-6.79673 c 1.74693,-2.00994 1.2195,-9.79613 -0.71383,-10.53802 -2.96509,-1.13781 -4.6221,0.91323 -4.6221,5.72123 0,5.18306 2.81163,7.72114 5.33593,4.81679 z m 16.97175,6.84397 c -11.19337,-1.83205 -9.96862,-23.69112 1.3253,-23.65374 5.39067,0.0178 8.22106,3.51838 8.59738,10.63298 l 0.18195,3.44 h -5.9456 -5.9456 l 0.25866,0.90188 c 0.90318,3.14919 4.16399,3.92761 8.2854,1.97786 1.1158,-0.52786 2.09302,-0.95974 2.17159,-0.95974 0.0786,0 0.10164,1.40354 0.0513,3.11899 l -0.0916,3.119 -1.76,0.68129 c -2.05126,0.79403 -4.95951,1.09653 -7.12876,0.74148 z m 3.92876,-15.48571 c 0,-2.64804 -3.74287,-3.48873 -4.96973,-1.11625 -0.775,1.49869 -0.65761,1.5812 2.24973,1.5812 2.16529,0 2.72,-0.0948 2.72,-0.46495 z m 75.17454,15.50073 c -11.62064,-1.95961 -10.42276,-23.67981 1.30546,-23.67087 5.09085,0.004 7.9866,3.67742 8.25721,10.47509 l 0.14332,3.6 h -5.80027 c -6.46438,0 -6.47748,0.005 -5.17619,2.13957 1.2501,2.05021 4.74919,2.33602 7.99331,0.65291 0.92492,-0.47987 1.74039,-0.87248 1.81215,-0.87248 0.0718,0 0.13047,1.36507 0.13047,3.03349 v 3.0335 l -1.25064,0.63802 c -1.13436,0.57871 -2.13311,0.80154 -4.98936,1.11315 -0.528,0.0576 -1.61946,-0.006 -2.42546,-0.14238 z m 3.86426,-15.43578 c -0.007,-2.35366 -3.25324,-3.4512 -4.84095,-1.63673 -1.50706,1.72229 -1.20747,2.03673 1.94058,2.03673 2.10856,0 2.90124,-0.10933 2.90037,-0.4 z m 11.5212,15.45339 c -0.968,-0.12927 -2.372,-0.54809 -3.12,-0.93072 l -1.36,-0.69568 v -3.0335 c 0,-3.37756 -0.0285,-3.34767 2.13046,-2.23467 3.04503,1.5698 6.4941,1.72766 7.03354,0.3219 0.28916,-0.75354 -0.33709,-1.28473 -3.56812,-3.02653 -10.6619,-5.74767 -4.71765,-17.48176 6.74768,-13.32008 2.85125,1.03495 2.81893,0.96423 1.75011,3.82923 -1.15666,3.10046 -0.88438,2.91754 -2.92717,1.96661 -1.9177,-0.8927 -4.46112,-1.08349 -5.04619,-0.37853 -0.49049,0.59101 0.14235,1.10942 3.41853,2.80039 9.9074,5.11362 6.09559,16.19119 -5.05884,14.70158 z m 17.83469,-0.0382 c -3.64759,-0.86986 -4.47342,-2.86025 -4.65699,-11.22408 l -0.13939,-6.35115 h -1.07916 -1.07915 v -1.90463 c 0,-1.88648 0.0132,-1.91372 1.38715,-2.85902 1.24257,-0.85491 1.46207,-1.20673 2.10587,-3.37537 l 0.71871,-2.42098 h 2.05413 2.05414 v 2.4 2.4 h 2.4 2.4 v 2.88 2.88 h -2.40739 -2.40738 l 0.0874,5.64549 c 0.10681,6.9003 0.21445,7.02939 4.48739,5.38194 0.50784,-0.1958 0.56,0.0523 0.56,2.66358 v 2.87949 l -1.2,0.47285 c -1.65822,0.65341 -3.85057,0.87403 -5.28531,0.53188 z m 42.11993,0.0395 c -8.57742,-2.04542 -5.65959,-15.03209 3.38346,-15.05911 2.84836,-0.009 3.50175,-0.59685 2.40377,-2.16443 -0.7097,-1.01324 -2.87175,-0.95806 -5.30849,0.13548 -1.03766,0.46568 -1.93455,0.78968 -1.99308,0.72 -0.62505,-0.74408 -1.80695,-4.85308 -1.50172,-5.22086 1.32428,-1.59565 7.1546,-2.61089 10.16059,-1.76926 4.17644,1.16933 4.90085,3.32761 4.90085,14.60152 v 8.42192 h -2.21458 c -2.1981,0 -2.21613,-0.007 -2.42442,-0.95545 l -0.20986,-0.95545 -1.18183,0.94974 c -0.98411,0.79085 -3.85876,1.72761 -4.81299,1.5684 -0.10798,-0.018 -0.64874,-0.14064 -1.2017,-0.2725 z m 4.1944,-5.90954 c 1.23588,-0.51638 2.09098,-1.90911 2.09098,-3.40565 v -1.01222 l -1.52,0.21056 c -3.46585,0.48011 -4.97338,2.32872 -3.28,4.02211 0.75946,0.75945 1.25376,0.79325 2.70902,0.1852 z m 17.49794,5.88001 c -4.92766,-1.00149 -6.92079,-4.31693 -6.91657,-11.50521 0.006,-10.03703 6.00532,-14.89822 13.80835,-11.18859 l 1.65874,0.78859 -0.80935,2.56 c -1.01464,3.20934 -0.99106,3.18819 -2.69312,2.41601 -4.30849,-1.95466 -6.86135,0.68323 -6.257,6.46538 0.48204,4.61185 3.16293,5.81774 7.34081,3.30195 l 1.82118,-1.09665 v 3.35435 3.35436 l -1.68,0.75401 c -1.98372,0.89032 -4.33828,1.18902 -6.27304,0.7958 z m 26.29749,0.004 c -9.32537,-1.8678 -10.46976,-19.99922 -1.4651,-23.21266 0.66035,-0.23566 1.02065,-0.43479 0.80065,-0.44252 -0.97385,-0.0342 -0.37894,-2.19758 1.44,-5.23662 l 1.84,-3.07423 3.12,-0.0116 c 4.4794,-0.0167 4.38518,0.57902 -0.96538,6.10362 l -2.04858,2.11522 1.43886,0.36231 c 11.71194,2.9491 7.65507,25.76304 -4.16045,23.39648 z m 3.72613,-6.5407 c 1.90107,-1.72045 1.65808,-9.67493 -0.32803,-10.73786 -3.77414,-2.01986 -6.47581,3.77769 -4.44421,9.5369 0.65675,1.86175 3.30552,2.52833 4.77224,1.20096 z m 44.52695,6.485 c -6.90018,-1.51529 -8.37287,-17.88731 -2.01904,-22.44573 1.80741,-1.29668 4.97655,-1.5658 6.86151,-0.58267 l 1.2,0.62588 v -4.7655 -4.7655 h 3.04 3.04 v 15.85346 15.85346 l -2.48,-0.0935 c -2.29512,-0.0865 -2.48763,-0.14714 -2.58226,-0.81346 -0.11995,-0.84463 -0.45683,-0.91586 -1.03525,-0.21891 -1.05192,1.26749 -3.70246,1.86246 -6.02496,1.35243 z m 5.29814,-6.79228 c 1.73914,-2.00087 1.2136,-9.80431 -0.71001,-10.54247 -2.92929,-1.12407 -4.62719,0.89103 -4.62388,5.4877 0.004,5.41224 2.75614,8.02045 5.33389,5.05477 z m 16.94324,6.83489 c -10.83763,-1.76919 -10.1008,-22.98803 0.81969,-23.6051 5.68411,-0.32118 8.71234,3.24382 9.13054,10.74897 l 0.18277,3.28 h -5.96596 c -3.28127,0 -5.96595,0.0691 -5.96595,0.15352 0,3.36448 4.33257,4.73972 8.58873,2.72622 1.1158,-0.52786 2.09302,-0.95974 2.17159,-0.95974 0.0786,0 0.10164,1.40354 0.0513,3.11899 l -0.0916,3.119 -1.76,0.68129 c -2.06079,0.79773 -4.96048,1.09609 -7.16109,0.73685 z m 3.96109,-15.48108 c 0,-2.64804 -3.74287,-3.48873 -4.96973,-1.11625 -0.775,1.49869 -0.6576,1.5812 2.24973,1.5812 2.16529,0 2.72,-0.0948 2.72,-0.46495 z m 20.74859,15.49595 c -0.99627,-0.15446 -2.47227,-0.59149 -3.28,-0.97117 l -1.46859,-0.69032 v -3.46898 -3.46899 l 2.41785,1.14823 c 8.05702,3.82626 12.07471,-0.90286 4.29141,-5.05132 -7.81407,-4.16485 -8.93262,-13.68417 -2.01181,-17.1213 2.93755,-1.45889 12.53345,0.0554 11.86387,1.87217 -0.0812,0.22037 -0.47457,1.40868 -0.8741,2.64068 -0.94572,2.9162 -0.87614,2.87279 -3.02641,1.88836 -3.58841,-1.64283 -6.58081,-1.03818 -6.58081,1.32971 0,1.26455 0.85122,2.02595 4.96,4.43666 10.55995,6.19573 5.82452,19.33477 -6.29141,17.45627 z m 26.96995,0.005 c -0.94681,-0.14101 -2.27881,-0.50771 -2.96,-0.81488 l -1.23854,-0.5585 v -3.1514 c 0,-1.73327 0.0768,-3.1514 0.17064,-3.1514 0.0938,0 0.88275,0.36085 1.75311,0.8019 3.17917,1.61101 6.75324,1.75536 6.97033,0.28153 0.126,-0.85538 -0.56234,-1.42347 -3.95097,-3.26073 -6.09423,-3.30418 -6.92369,-10.18965 -1.56606,-13.00018 2.5369,-1.33082 11.34295,-0.38314 11.34295,1.2207 0,0.34563 -1.68199,4.85242 -1.89769,5.08473 -0.12662,0.13637 -1.04209,-0.12373 -2.03438,-0.57802 -4.90175,-2.24409 -6.5497,-0.25071 -1.85968,2.2495 10.21115,5.44345 6.67218,16.57483 -4.72971,14.87675 z m 18.04146,0.0301 c -3.87851,-0.95002 -4.63571,-2.82193 -4.63822,-11.46628 l -0.002,-6.16 h -1.28 -1.28 v -1.89062 c 0,-1.88731 0.002,-1.89218 1.41411,-2.78525 1.31039,-0.82902 1.46623,-1.07764 2.12447,-3.38939 l 0.71035,-2.49474 h 2.03553 2.03554 v 2.4 2.4 h 2.56 2.56 v 2.88 2.88 h -2.56739 -2.56738 l 0.0874,5.67258 0.0874,5.67259 0.87897,0.30882 c 0.64005,0.22488 1.31731,0.16865 2.49166,-0.2069 l 1.61271,-0.51572 -0.0917,2.93369 -0.0917,2.93369 -1.12,0.35895 c -1.64488,0.52716 -3.86468,0.73687 -4.96,0.46858 z m 15.68,0.0691 c -11.46412,-1.51129 -11.57938,-22.88406 -0.12783,-23.70341 5.72274,-0.40946 8.91426,3.18958 9.18881,10.36212 l 0.13955,3.64591 h -5.84026 -5.84027 l 0.1992,1.04 c 0.55154,2.87943 4.20731,3.70472 8.14953,1.83974 1.1158,-0.52786 2.0878,-0.95974 2.16,-0.95974 0.0722,0 0.13127,1.36507 0.13127,3.03349 v 3.0335 l -1.25064,0.63802 c -1.55114,0.79134 -4.98765,1.32371 -6.90936,1.07037 z m 3.18824,-15.85538 c -0.9264,-3.10405 -4.46602,-3.10405 -5.41196,0 -0.2164,0.71013 -0.17935,0.72 2.70372,0.72 2.88173,0 2.92008,-0.0102 2.70824,-0.72 z m 44.49176,15.92639 c -0.176,-0.0607 -0.71336,-0.19709 -1.19413,-0.30303 -4.47622,-0.98633 -5.97876,-8.93468 -2.371,-12.54245 1.48214,-1.48214 3.8012,-2.35793 6.26321,-2.36528 2.84836,-0.009 3.50175,-0.59685 2.40377,-2.16443 -0.7035,-1.0044 -2.95283,-0.96052 -5.23565,0.10212 -2.02479,0.94254 -1.98627,0.96658 -3.07148,-1.91654 l -0.83654,-2.22249 0.74091,-0.57661 c 2.89877,-2.25596 9.21239,-2.44235 12.02386,-0.35495 2.33511,1.73371 2.46551,2.37468 2.57507,12.65727 l 0.098,9.2 h -2.2326 -2.2326 l -0.21729,-0.98934 -0.2173,-0.98934 -0.84813,0.80898 c -1.17582,1.12154 -4.43109,2.07602 -5.64813,1.65609 z m 4.25428,-6.4448 c 0.85069,-0.55038 1.34572,-1.67323 1.34572,-3.05246 v -0.96919 l -1.68,0.21374 c -2.34898,0.29886 -3.25543,1.01835 -3.37857,2.68175 -0.14441,1.9507 1.61402,2.48406 3.71285,1.12616 z m 13.8643,6.27459 c -0.9468,-0.14101 -2.2788,-0.50771 -2.96,-0.81488 l -1.2386,-0.5585 v -3.1514 c 0,-1.73327 0.077,-3.1514 0.1707,-3.1514 0.094,0 0.8827,0.36085 1.7531,0.8019 3.1792,1.61101 6.7532,1.75536 6.9703,0.28153 0.126,-0.85538 -0.5623,-1.42347 -3.951,-3.26073 -6.0942,-3.30418 -6.92366,-10.18965 -1.566,-13.00018 2.5369,-1.33082 11.3429,-0.38314 11.3429,1.2207 0,0.34563 -1.682,4.85242 -1.8977,5.08473 -0.1266,0.13637 -1.0421,-0.12373 -2.0343,-0.57802 -4.9018,-2.24409 -6.5497,-0.25071 -1.8597,2.2495 10.2111,5.44345 6.6722,16.57483 -4.7297,14.87675 z m 27.3214,0.11424 c -0.352,-0.0744 -0.9676,-0.20539 -1.368,-0.29101 -5.6057,-1.1985 -7.5631,-15.40855 -2.9011,-21.06074 1.9429,-2.35556 5.6185,-3.15094 8.2819,-1.79217 l 1.2672,0.6465 v -4.8065 -4.8065 h 2.88 2.88 v 15.84 15.84 h -2.4 c -2.1139,0 -2.4,-0.0699 -2.4,-0.58667 0,-0.97114 -0.3475,-1.02494 -1.4059,-0.21764 -0.8236,0.62823 -3.3878,1.5177 -4.0341,1.39936 -0.088,-0.0161 -0.448,-0.0902 -0.8,-0.16463 z m 3.5147,-6.18839 c 2.2802,-0.86693 2.657,-9.07667 0.506,-11.02334 -1.8319,-1.65781 -4.2528,-0.0758 -4.848,3.16797 -0.9829,5.35756 1.0827,9.09455 4.342,7.85537 z m 18.0599,6.07466 c -11.4141,-1.93186 -10.3621,-23.67669 1.1454,-23.67669 5.3463,0 8.1804,3.46358 8.424,10.29506 l 0.1349,3.78494 h -5.7994 c -3.7733,0 -5.7995,0.11539 -5.7995,0.33027 0,3.32541 4.2613,4.53495 8.72,2.47515 l 1.84,-0.85002 v 3.01579 3.0158 l -1.2659,0.6458 c -1.0094,0.51499 -5.0498,1.38492 -5.7741,1.24323 -0.088,-0.0172 -0.8194,-0.14292 -1.6254,-0.27933 z m 3.7199,-15.91669 c -0.5283,-2.16391 -3.1472,-2.86068 -4.5635,-1.21416 -1.4617,1.69937 -1.0802,2.09416 2.0237,2.09416 h 2.7547 z m 65.0752,15.94164 c -4.6756,-0.91351 -5.4055,-2.89244 -5.4079,-14.66164 v -8.72 h 2.88 2.88 v 7.65916 c 0,9.43968 0.3752,10.56823 3.2406,9.74645 2.2042,-0.63216 2.3477,-1.20055 2.4603,-9.74824 l 0.101,-7.65737 h 3.019 3.0191 v 11.53346 11.53346 l -2.48,-0.0935 c -2.27,-0.0856 -2.4884,-0.1525 -2.5793,-0.79074 l -0.099,-0.69727 -1.1089,0.7525 c -0.9401,0.63797 -3.8137,1.5258 -4.5483,1.40525 -0.1233,-0.0202 -0.7419,-0.13795 -1.3746,-0.26156 z m 20.0303,0.14475 c -0.176,-0.0607 -0.7196,-0.19866 -1.208,-0.30653 -7.5093,-1.65826 -5.099,-13.97416 2.8873,-14.7538 3.68,-0.35925 3.9207,-0.43482 3.9207,-1.23097 0,-1.88757 -2.5888,-2.34033 -5.6474,-0.98768 -2.1033,0.93015 -1.9874,1.00086 -3.128,-1.90858 l -0.8709,-2.22117 0.7432,-0.5783 c 3.2802,-2.55259 10.0622,-2.44081 12.6135,0.20791 1.8933,1.96552 2.0496,2.94158 2.0496,12.79443 v 8.4983 h -2.2 -2.2 l -0.2033,-1.01668 -0.2033,-1.01667 -0.8767,0.83631 c -1.2027,1.14734 -4.4443,2.10865 -5.6767,1.68343 z m 3.4885,-6.05238 c 1.4038,-0.58657 2.1115,-1.65069 2.1115,-3.17504 v -1.23882 l -1.68,0.21374 c -3.6219,0.46081 -5.0947,4.35493 -1.7497,4.62603 0.1377,0.0112 0.7308,-0.1805 1.3182,-0.42591 z m 14.7515,5.89004 c -0.88,-0.13679 -2.212,-0.49725 -2.96,-0.80102 l -1.36,-0.55232 v -3.16525 c 0,-1.74089 0.077,-3.16525 0.1707,-3.16525 0.094,0 0.8935,0.3663 1.777,0.814 3.0672,1.55431 6.7351,1.69518 6.9464,0.2668 0.1261,-0.85257 -0.5643,-1.4219 -3.951,-3.2581 -10.5782,-5.73534 -3.0705,-17.82551 7.9369,-12.7813 1.012,0.46375 1.8407,0.95915 1.8416,1.10089 0.001,0.21338 -1.6013,4.88222 -1.7633,5.13717 -0.028,0.0437 -0.9538,-0.28756 -2.0578,-0.73616 -4.9359,-2.00563 -6.7784,-0.29581 -2.2605,2.09772 5.3573,2.83822 6.2265,4.02994 6.0335,8.27245 -0.2322,5.10346 -4.2356,7.72137 -10.3535,6.77037 z M 194.0887,857.12513 v -11.53402 l 2.32,0.094 2.32,0.094 0.10028,1.04 c 0.0889,0.92176 0.69972,1.54415 0.69972,0.71295 0,-0.80512 2.99033,-2.23295 4.67648,-2.23295 2.65793,0 2.72199,0.0642 2.51239,2.51623 -0.37754,4.41689 -0.32918,4.3099 -1.85373,4.10094 -4.16892,-0.57142 -5.01514,1.11441 -5.01514,9.99119 v 6.75164 h -2.88 -2.88 z m 131.52001,9.27025 v -2.26376 l 1.27674,-0.53624 1.27675,-0.53623 0.003,-9.2026 0.003,-9.20259 -1.28,-0.51215 -1.28,-0.51216 v -2.36525 -2.36525 h 5.76 5.76 v 2.24415 2.24416 l -1.44,0.69961 -1.44,0.69961 v 9.06039 9.06039 l 1.44,0.69961 1.44,0.69961 v 2.17623 2.17624 h -5.76 -5.76 z m 13.44,-9.25623 v -11.52 h 2.36531 c 2.26757,0 2.37375,0.0337 2.56981,0.8148 l 0.2045,0.8148 0.87019,-0.60586 c 2.7574,-1.91981 7.03536,-1.75806 9.29696,0.35153 2.02875,1.89239 2.1239,2.42295 2.2352,12.46473 l 0.10196,9.2 h -2.88632 -2.88633 l -0.0956,-7.96705 c -0.11123,-9.26561 -0.15795,-9.42178 -2.76657,-9.24791 -2.69566,0.17967 -3.23194,2.08734 -3.24264,11.53496 l -0.006,5.68 h -2.88 -2.88 z m 25.50019,11.29207 c -0.18618,-0.30774 -7.26019,-22.34611 -7.26019,-22.61839 0,-0.10653 1.35683,-0.19368 3.01518,-0.19368 h 3.01518 l 0.33547,1.04 c 0.18451,0.572 1.05969,3.54801 1.94486,6.61337 0.88516,3.06536 1.66072,5.62471 1.72346,5.68744 0.0627,0.0627 0.64997,-1.72528 1.30497,-3.97337 0.655,-2.2481 1.54837,-5.27544 1.98526,-6.72744 l 0.79435,-2.64 h 3.02063 c 1.66135,0 3.01772,0.108 3.01416,0.24 -0.004,0.132 -1.62749,5.28 -3.60872,11.44 l -3.60224,11.2 -2.76494,0.0921 c -1.52071,0.0506 -2.83355,-0.0214 -2.91743,-0.16 z m 62.17981,-11.29207 v -11.52 h 2.88 2.88 v 11.52 11.52 h -2.88 -2.88 z m 65.6,0 v -11.52 h 3.04 3.04 v 11.52 11.52 h -3.04 -3.04 z m 29.76,0 v -11.52 h 2.4 c 2.11394,0 2.4,0.0699 2.4,0.58666 0,0.98769 0.33672,1.01135 1.68596,0.11846 2.94216,-1.94702 7.65164,-1.11448 9.58749,1.69488 1.28975,1.87171 1.52655,3.8392 1.52655,12.68367 v 7.95633 h -2.8594 -2.8594 l -0.1006,-7.77507 c -0.1184,-9.15051 -0.21742,-9.50493 -2.65551,-9.50493 -2.85797,0 -3.36509,1.642 -3.36509,10.89575 v 6.38425 h -2.88 -2.88 z m 96,0 v -11.52 h 2.88 2.88 v 11.52 11.52 h -2.88 -2.88 z m 57.92,0 v -11.52 h 2.4 c 2.34667,0 2.4,0.0178 2.4,0.8 0,0.82725 0.43802,1.06568 0.82059,0.44667 1.29216,-2.09076 7.09077,-2.00009 9.06549,0.14176 l 0.76608,0.83091 0.99392,-0.83816 c 2.81639,-2.37505 7.25771,-2.32875 9.53694,0.0994 1.88231,2.00529 1.99307,2.66058 2.11616,12.51942 l 0.11286,9.04 h -2.8814 -2.8814 l -0.10462,-7.96698 c -0.12036,-9.16515 -0.19548,-9.43074 -2.61607,-9.24832 -2.44467,0.18423 -2.59282,0.70684 -2.70949,9.55792 l -0.10093,7.65738 h -2.83878 -2.83879 l -0.10028,-7.96706 c -0.11385,-9.04538 -0.18569,-9.31294 -2.50028,-9.31294 -2.43468,0 -2.86151,1.58116 -2.87218,10.64 l -0.008,6.64 h -2.88 -2.88 z m 120.95998,11.23289 c 0,-0.24349 3.7918,-12.69496 7.879,-25.87289 l 1.1166,-3.6 h 3.0084 3.0085 l 1.2728,4.08 c 3.7413,11.99249 7.7147,25.04445 7.7147,25.3414 0,0.21429 -1.1123,0.3386 -3.0297,0.3386 h -3.0297 l -0.8324,-2.8 c -0.4577,-1.54 -0.9424,-3.16 -1.0769,-3.6 -0.2429,-0.79449 -0.2707,-0.8 -4.0313,-0.8 h -3.7866 l -0.4078,1.28 c -0.2243,0.704 -0.7104,2.324 -1.0802,3.6 l -0.6725,2.32 h -3.0264 c -1.6646,0 -3.0265,-0.1292 -3.0265,-0.28711 z m 13.8754,-13.40069 c 0.1368,-0.22137 -1.5576,-6.74111 -1.8202,-7.00371 -0.1726,-0.17258 -2.06,6.74815 -1.9121,7.01151 0.1783,0.31762 3.5355,0.31061 3.7323,-0.008 z m -382.7696,-10.64744 c -0.99218,-0.39819 -1.77473,-2.36076 -1.56495,-3.92477 0.49993,-3.72729 5.45467,-3.82123 6.14966,-0.11661 0.56878,3.03187 -1.83043,5.14676 -4.58471,4.04138 z m 65.1896,-0.60015 c -2.58687,-2.58687 -0.32045,-6.96485 3.13028,-6.04666 3.36812,0.89621 2.47411,6.98205 -1.02566,6.98205 -0.86564,0 -1.41211,-0.24288 -2.10462,-0.93539 z m 125.59329,0.18961 c -2.22364,-1.91269 -0.93474,-6.35822 1.84344,-6.35822 2.28313,0 3.22173,1.07697 3.22173,3.69669 0,2.91776 -2.95943,4.47281 -5.06517,2.66153 z m -88.44867,-29.20231 c -0.792,-0.069 -3.312,-0.2757 -5.6,-0.45925 -52.21845,-4.18917 -101.76749,-26.98395 -139.79649,-64.31266 -20.88146,-20.49694 -32.08882,-35.69273 -45.20214,-61.28848 -10.38187,-20.26424 -20.62532,-48.59735 -19.35365,-53.53166 0.50083,-1.94332 15.80901,-3.00419 24.66421,-1.70926 l 1.43193,0.2094 2.91777,8.48 c 19.77016,57.45858 53.02745,97.08713 103.01837,122.75409 32.71224,16.79552 72.99357,24.94573 107.04,21.65764 l 5.92,-0.57173 0.25733,-2.4 c 0.43438,-4.05116 0.0375,-21.82164 -0.55741,-24.96 -2.65471,-14.00397 -5.81661,-15.96794 -28.33992,-17.60302 -15.25471,-1.10742 -20.67665,-3.30352 -29.13863,-11.80228 -19.43963,-19.52413 -17.55137,-48.53166 4.30806,-66.18065 8.2046,-6.62427 8.0506,-6.60193 51.39057,-7.45511 31.1786,-0.61377 55.08348,-1.37313 60.60698,-1.92524 7.69612,-0.76927 11.1378,-5.29034 12.84799,-16.87742 l 0.57802,-3.91628 h 64.30882 64.30887 l -0.1801,3.44 c -0.634,12.1102 -18.5808,54.26467 -31.5048,74 -33.35278,50.9308 -88.34804,88.76096 -145.35786,99.98881 -15.08745,2.97142 -47.41703,5.43505 -58.56792,4.4631 z m -0.8,-220.52057 c -7.38998,-1.02199 -11.33554,-4.11511 -11.35297,-8.90014 -0.0147,-4.02557 1.40338,-4.30577 7.32107,-1.44662 6.25227,3.02081 8.39889,3.16613 11.21114,0.75894 5.57293,-4.77021 4.53676,-7.28224 -6.21924,-15.07767 -12.88721,-9.34003 -15.53066,-16.76031 -9.23197,-25.9146 6.61884,-9.61961 28.51289,-7.19943 25.03831,2.76775 -0.57617,1.65279 -1.07786,1.72652 -5.45951,0.80226 -15.29283,-3.22583 -17.59764,3.75776 -4.58683,13.89811 11.03884,8.60345 12.16,10.23109 12.16,17.65337 0,10.49369 -7.91568,16.9749 -18.88,15.4586 z m 88.32506,-0.28043 c -26.5434,-5.94757 -24.76783,-50.66945 2.23494,-56.2918 7.80171,-1.62442 20.64,3.2325 20.64,7.80843 0,3.91706 -3.33443,6.20032 -6.28573,4.30417 -8.29952,-5.33228 -13.6559,-5.15716 -19.87071,0.64965 -7.39126,6.90602 -7.5767,23.26343 -0.34906,30.79026 5.29264,5.51175 10.60727,5.80175 20.51872,1.11965 4.95865,-2.34243 6.94678,-1.50717 6.94678,2.91852 0,5.4834 -14.52726,10.78669 -23.83494,8.70112 z m -157.28506,-0.15717 c -24.92382,-3.68145 -25.0855,-47.94206 -0.20318,-55.61798 9.58848,-2.95793 25.57264,2.76358 23.09158,8.26561 -1.57559,3.49403 -3.92414,3.99359 -8.67047,1.8443 -12.60393,-5.70744 -22.97731,2.63055 -23.00899,18.49433 -0.0254,12.72903 6.08114,18.70986 19.11106,18.71758 l 4.08,0.002 0.0157,-4.72 c 0.0373,-11.20038 0.56184,-14.75139 2.28455,-15.46496 0.91891,-0.38063 6.52773,-0.21373 6.94821,0.20675 0.44051,0.44051 0.7289,25.82481 0.29656,26.10238 -3.05797,1.96331 -16.86933,3.2147 -23.94502,2.16957 z m 39.42376,-0.60941 c -0.58093,-0.13758 -1.12156,-0.31547 -1.2014,-0.3953 -0.25924,-0.25924 -0.74296,-18.54692 -0.9694,-36.64903 l -0.22115,-17.68 h 4.32674 4.32673 l 0.18963,11.92 c 0.1043,6.556 0.2643,18.94 0.35556,27.52 l 0.16592,15.6 -2.95819,-0.0328 c -1.62701,-0.018 -3.43351,-0.14532 -4.01444,-0.28291 z m 52.33624,-0.03 c -2.3938,-1.39426 15.79029,-52.69628 19.58462,-55.25328 2.5711,-1.73266 4.84423,-0.29997 6.72551,4.23892 4.03464,9.7342 16.32285,45.99611 16.6997,49.28 0.16555,1.44263 -1.41412,2.17662 -4.22929,1.96512 -4.32125,-0.32466 -5.59873,-1.92596 -8.14144,-10.20512 l -1.25305,-4.08 h -8.68955 -8.68955 l -1.36008,3.76 c -3.38516,9.35838 -6.71919,12.58203 -10.64687,10.29436 z m 26.58666,-22.32299 c -0.0587,-0.14774 -1.17963,-3.13574 -2.49103,-6.64 -2.18493,-5.83845 -2.65871,-6.83224 -3.26402,-6.84647 -0.93061,-0.0219 -5.80706,12.18764 -5.13581,12.85889 0.71676,0.71676 11.16536,1.31886 10.89086,0.62758 z m 493.49333,-59.37588 c 0,-12.86043 -2.8455,-42.63882 -5.9509,-62.27549 C 1026.8202,197.98759 815.46059,10.203024 560.16871,-0.74969931 c -3.256,-0.139692 110.756,-0.27584799 253.35998,-0.30256899 l 259.28001,-0.04859 V 256.65915 c 0,141.768 -0.072,257.76 -0.16,257.76 -0.088,0 -0.16,-1.35203 -0.16,-3.00451 z M 3.0944117,249.05915 3.0487117,-1.1008533 262.00871,-1.0518733 c 142.428,0.02694 256.368,0.16070199 253.2,0.29725499 C 241.83083,11.029012 22.564762,223.64806 3.3995017,495.53915 c -0.14267,2.024 -0.27996,-108.892 -0.30509,-246.48 z m 326.2005383,246.08 c 0.49687,-3.03714 3.60659,-10.08183 10.41769,-23.6 11.57009,-22.96348 20.66939,-35.74964 42.74678,-60.06695 l 6.82929,-7.52217 V 352.96761 301.9852 l 2.88094,-2.66303 c 4.63414,-4.28361 4.64805,-4.28845 13.13036,-4.56903 7.0389,-0.23283 8.6287,-0.44615 8.6287,-1.15779 0,-0.49029 -1.89132,-3.68052 -14.49883,-24.4562 -5.98101,-9.856 -13.16408,-21.808 -15.96237,-26.56 -5.87279,-9.97304 -5.24688,-9.36016 -7.12842,-6.97991 -4.70302,5.94959 -34.73038,55.73568 -34.73038,57.58382 0,0.63229 0.98674,0.82995 8.48824,1.70039 9.57597,1.11115 12.95313,2.92925 14.53462,7.82473 1.82351,5.64466 1.55996,67.36386 -0.31798,74.46624 -1.5955,6.03419 -13.60621,9.00092 -19.41233,4.79499 -3.7051,-2.68397 -3.85368,-3.6708 -4.7261,-31.39026 -0.60308,-19.16157 -1.05454,-27.24353 -1.54923,-27.73403 -0.50432,-0.50004 -4.52916,-0.94392 -13.97722,-1.54148 -13.61656,-0.8612 -14.79888,-1.1441 -17.94964,-4.29486 -7.48653,-7.48653 -6.0151,-10.78723 33.46548,-75.06963 30.06216,-48.9473 29.24013,-47.86263 36.45565,-48.10332 8.39699,-0.28009 7.22828,-1.82863 44.51566,58.98332 28.93943,47.19728 31.4088,51.91252 30.25577,57.77325 -1.63533,8.3122 -4.19246,9.61532 -20.98292,10.69291 -9.12246,0.58546 -13.68817,1.0796 -13.95466,1.51029 -0.79,1.27672 -1.82901,54.25929 -1.14294,58.28218 0.45994,2.69695 1.7073,2.31342 10.85565,-3.33779 27.75953,-17.1479 67.8794,-30.3974 95.92195,-31.67802 8.98039,-0.41011 39.68408,-0.17894 46.24,0.34814 29.48689,2.37069 66.80032,15.20924 94.37035,32.4703 5.59904,3.50545 7.46722,4.52783 7.75245,4.2426 0.42512,-0.42512 0.71124,-15.56491 0.73447,-38.86386 l 0.0227,-22.8 H 656.83379 642.4589 l -2.79827,-3.1779 c -8.81374,-10.00946 -9.8379,-6.87018 16.65862,-51.0621 44.51343,-74.24122 44.51257,-74.24 52.63956,-74.24 7.56798,0 7.4256,-0.19171 42.18738,56.8 32.2271,52.83621 32.5339,53.43488 31.4336,61.34543 -1.0894,7.83272 -4.5599,9.70649 -19.1221,10.32425 -6.9641,0.29543 -12.6063,0.71705 -15.3205,1.14484 l -0.9915,0.15628 -0.22,13.5146 c -0.3146,19.33154 -1.0486,35.20613 -1.8376,39.741 -1.7683,10.16413 -18.2571,11.08982 -23.00054,1.29127 -2.69906,-5.57553 -2.58202,-70.71175 0.13638,-75.89482 2.50851,-4.78288 5.96266,-6.3817 14.74476,-6.82498 9.6668,-0.48794 10.2651,1.46894 -9.343,-30.55787 -13.97994,-22.83418 -17.81515,-28.70449 -18.65701,-28.55717 -1.85727,0.32502 -31.27877,48.08446 -34.22258,55.55296 -1.28012,3.2477 -1.37953,3.18693 5.90258,3.60864 17.82113,1.03201 16.78075,-3.22393 16.79297,68.69619 l 0.007,41.38062 6.61681,7.09938 c 13.81536,14.82292 19.45532,21.7477 27.67493,33.97938 11.8154,17.58272 24.5883,42.92932 24.5883,48.79327 v 1.52587 l -13.4564,0.23736 c -7.4011,0.13055 -13.5012,0.18474 -13.5558,0.12043 -0.055,-0.0643 -2.1152,-4.00493 -4.57913,-8.75693 C 686.66873,414.27725 620.97551,373.195 541.60865,373.17684 c -27.04272,-0.006 -24.4741,-1.7487 -24.47336,16.60231 9.5e-4,23.59338 1.08279,25.13536 20.20338,28.79645 16.08672,3.08019 20.25928,5.03705 27.78353,13.03002 17.0815,18.14559 16.81655,41.8471 -0.69315,62.00828 l -2.5004,2.87904 -116.42813,0.003 -116.42813,0.003 z M 566.22068,321.13456 c -4.82694,-0.81376 -9.74879,-5.0522 -10.74599,-9.25389 -1.17664,-4.95771 -1.45544,-52.6713 -0.33526,-57.37407 1.38291,-5.80571 6.7678,-10.53897 12.85517,-11.29954 1.07045,-0.13374 1.89425,-0.40867 1.99261,-0.66498 0.36448,-0.94982 -25.30917,-36.07989 -26.69366,-36.52577 -0.85873,-0.27657 -14.39216,17.57005 -24.70322,32.57626 -2.82755,4.11509 -2.84556,3.94867 0.53838,4.97634 12.02623,3.65225 12.61012,5.16487 12.58783,32.61024 -0.0332,40.91225 -1.2137,44.83796 -13.46783,44.78747 -11.59444,-0.0478 -13.05408,-4.9005 -13.11055,-43.58747 l -0.009,-6.48 -7.44,-0.006 c -16.27222,-0.0121 -21.28638,-2.63394 -22.29855,-11.6595 -0.76547,-6.82565 -1.03644,-6.36883 25.06412,-42.25495 36.774,-50.56123 37.401,-51.21324 46.66103,-48.52217 3.18397,0.9253 14.09801,14.53781 38.00543,47.40217 29.64344,40.7494 30.25227,42.30746 20.5953,52.70618 l -1.54733,1.66619 -11.2,0.37734 c -13.47979,0.45415 -11.77786,-1.33832 -12.05645,12.69788 -0.41359,20.83767 -1.05678,30.08925 -2.22309,31.97637 -2.33141,3.77231 -8.26996,6.55927 -12.46849,5.85145 z"
         id="path8"
         clip-path="url(#clipPath9)"
         transform="translate(13.808937,-23.246115)" />
      <ellipse
         style="fill:#a62424;fill-opacity:0;stroke:#f9f9ff;stroke-width:15.1181;stroke-dasharray:none;stroke-dashoffset:0;stroke-opacity:1"
         id="path11"
         cx="557.86523"
         cy="533.19226"
         rx="530.07574"
         ry="520.0155" />
    </g>
  </g>
</svg>
